PathFileType	4	(X/Y/Z)	./resultDataOpenSim/trcMotMarkerGrf/sub09/qtm-15-05.trc
DataRate	CameraRate	NumFrames	NumMarkers	Units	OrigDataRate	OrigDataStartFrame	OrigNumFrames
250.000000	250.000000	13	24	m	250.000000	1	488
Frame#	Time	L.Toe.Tip			R.Toe.Tip			L.Ankle.Lat			R.Ankle.Lat			L.Ankle.Med			R.Ankle.Med			L.Heel			R.Heel			L.Knee.Lat			R.Knee.Lat			L.Knee.Med			R.Knee.Med			L.Thigh.Upper			R.Thigh.Upper			L.ASIS			R.ASIS			V.Sacral			L.Acromium			R.Acromium			C7			L.Elbow			R.Elbow			L.Wrist.Lat			R.Wrist.Lat
		X1	Y1	Z1	X2	Y2	Z2	X3	Y3	Z3	X4	Y4	Z4	X5	Y5	Z5	X6	Y6	Z6	X7	Y7	Z7	X8	Y8	Z8	X9	Y9	Z9	X10	Y10	Z10	X11	Y11	Z11	X12	Y12	Z12	X13	Y13	Z13	X14	Y14	Z14	X15	Y15	Z15	X16	Y16	Z16	X17	Y17	Z17	X18	Y18	Z18	X19	Y19	Z19	X20	Y20	Z20	X21	Y21	Z21	X22	Y22	Z22	X23	Y23	Z23	X24	Y24	Z24

1	0	-1.4389628	0.036049528	-0.079137888	-0.89097951	0.10077386	0.068053854	-1.587632	0.075265091	-0.10662184	-1.0400703	0.072831336	0.096411596	-1.5602256	0.090502938	-0.013394727	-1.0341108	0.113127	0.0061621385	NaN	NaN	NaN	-1.0890868	0.030852642	0.041457746	-1.4597187	0.47364477	-0.15983674	-1.1163405	0.52635552	0.14116891	-1.4606246	0.47272462	-0.033895914	-1.1160212	0.50754472	0.014568519	-1.3411912	0.87919934	-0.1931002	-1.3214252	0.87821788	0.17796466	-1.2352733	0.9487837	-0.13753436	-1.2384887	0.95811125	0.10317748	-1.3954572	1.0206581	-0.019251178	-1.1811063	1.3983707	-0.17277362	-1.2316959	1.4176485	0.15158153	-1.2670304	1.4640592	-0.018142166	-1.315877	1.0501117	-0.25683093	-1.4133179	1.1021148	0.22479324	-1.1010635	0.88617597	-0.21777677	-1.3111565	0.85077092	0.25788118
2	0.004	-1.4389416	0.035991695	-0.079114851	-0.87430389	0.10483067	0.069095453	-1.5874475	0.075686956	-0.10643032	-1.0232751	0.07324968	0.097465689	-1.5606024	0.090727854	-0.012790386	-1.0179558	0.11357971	0.0072748251	NaN	NaN	NaN	-1.0706552	0.03005069	0.043406031	-1.4564687	0.47313129	-0.15982684	-1.1104457	0.52485485	0.14138257	-1.4572815	0.47232634	-0.033916631	-1.1093659	0.50591737	0.014592069	-1.335657	0.87776428	-0.19291978	-1.3155836	0.87649406	0.17797145	-1.2295094	0.94718789	-0.13764613	-1.2325242	0.95653596	0.10306819	-1.3897688	1.0188127	-0.018995123	-1.1753084	1.3969362	-0.17248154	-1.2264368	1.4158492	0.15191636	-1.2605941	1.4624786	-0.015424305	-1.309214	1.047958	-0.25738416	-1.4078825	1.1001002	0.22464641	-1.0934745	0.88556687	-0.21717378	-1.305442	0.84903859	0.25839789
3	0.008	-1.4389182	0.035935056	-0.079084242	-0.85790151	0.10886352	0.070142364	-1.5872665	0.076120082	-0.10620464	-1.0064488	0.073885914	0.098644455	-1.5618471	0.090817372	-0.011833592	-1.0019969	0.11413013	0.0083871887	NaN	NaN	NaN	-1.0525146	0.029399165	0.045324228	-1.4531282	0.47262175	-0.15977155	-1.104384	0.52336551	0.14156741	-1.4540122	0.4719168	-0.033906018	-1.1027562	0.50426645	0.014607849	-1.33011	0.87629818	-0.19278046	-1.309654	0.87476044	0.17798696	-1.2237333	0.94560763	-0.13777487	-1.2265411	0.95494902	0.10295801	-1.3839842	1.0169779	-0.018652876	-1.1694896	1.3954788	-0.17217183	-1.221131	1.4140473	0.1522473	-1.2545432	1.4609503	-0.013628488	-1.3025401	1.0458252	-0.25792431	-1.4024151	1.0980797	0.2245158	-1.0858909	0.88491538	-0.21655058	-1.2997101	0.84728451	0.25892289
4	0.012	-1.4388842	0.035879122	-0.079048612	-0.84193433	0.11284088	0.071199951	-1.5870798	0.076590542	-0.10593253	-0.98935267	0.074962281	0.10008285	-1.5635687	0.090850698	-0.010688916	-0.98637344	0.11481783	0.0094786947	NaN	NaN	NaN	-1.0348623	0.028992729	0.047120041	-1.4495654	0.47213817	-0.15955888	-1.0980678	0.52190163	0.14172672	-1.4507828	0.47150622	-0.033851265	-1.0961936	0.50259225	0.01461819	-1.3245305	0.87480369	-0.19270733	-1.3035998	0.87299609	0.17800127	-1.2179158	0.94404964	-0.13792925	-1.2205136	0.95334773	0.1028434	-1.3780594	1.0151518	-0.018222657	-1.1636337	1.3939908	-0.17184097	-1.2157565	1.4122374	0.1525813	-1.2488858	1.4594607	-0.012861682	-1.2958091	1.0437657	-0.25833215	-1.3968894	1.096042	0.22440818	-1.0783194	0.88419543	-0.21591047	-1.2939276	0.84550251	0.25946028
5	0.016	-1.4388316	0.035822937	-0.079016733	-0.82649197	0.11672032	0.072262551	-1.5868634	0.077126561	-0.10563262	-0.9717907	0.07661116	0.10181616	-1.5645716	0.09104145	-0.0098568542	-0.97119024	0.11562925	0.010509199	NaN	NaN	NaN	-1.0178077	0.028839236	0.048709902	-1.4457801	0.47167788	-0.15918123	-1.0915455	0.52046845	0.1418884	-1.4474953	0.47111415	-0.033759178	-1.0896683	0.50091257	0.014636529	-1.3189106	0.87330181	-0.19269663	-1.2974085	0.87118492	0.17800874	-1.2120332	0.94251821	-0.13810686	-1.2144239	0.95173869	0.10272262	-1.3720606	1.0133175	-0.017773303	-1.1577435	1.3924826	-0.17150105	-1.2103153	1.4104151	0.15292509	-1.2433666	1.4579528	-0.012629606	-1.2890071	1.0417981	-0.25854322	-1.391301	1.0939855	0.22432572	-1.070784	0.88340317	-0.21527772	-1.2880809	0.84369931	0.26000962
6	0.02	-1.4387618	0.03576481	-0.078993698	-0.81161902	0.12046251	0.073295239	-1.5865906	0.077738802	-0.10533575	-0.95411947	0.078686847	0.10362476	-1.5643103	0.091484547	-0.0095738363	-0.95645954	0.11654836	0.011452192	NaN	NaN	NaN	-1.0013812	0.028890307	0.050067819	-1.4419436	0.47120113	-0.15879326	-1.084931	0.51905575	0.14208544	-1.444045	0.47074503	-0.03364495	-1.0831713	0.49923966	0.01468237	-1.3132361	0.87180339	-0.19270793	-1.2910764	0.86932245	0.17801308	-1.2060762	0.94101675	-0.13830334	-1.208259	0.9501315	0.10260492	-1.3661463	1.011465	-0.017302703	-1.1518258	1.3909677	-0.17116605	-1.2048074	1.4085778	0.15327675	-1.2377751	1.4563996	-0.012473607	-1.2821617	1.0398829	-0.25862118	-1.38565	1.0919174	0.2242701	-1.0632984	0.882546	-0.21467071	-1.2821877	0.84187761	0.26056521
7	0.024	-1.438683	0.035704505	-0.07898027	-0.79734036	0.12403368	0.074254549	-1.5862551	0.078417244	-0.10506289	-0.93725468	0.080754509	0.105135	-1.5631837	0.092114661	-0.0096784427	-0.94209378	0.11757729	0.0123166	NaN	NaN	NaN	-0.98559881	0.029094329	0.051167513	-1.4381933	0.47068531	-0.1585138	-1.0782774	0.51766062	0.14234893	-1.4403727	0.47038768	-0.033520153	-1.0766827	0.49758207	0.014776045	-1.307478	0.87030689	-0.19267206	-1.2846243	0.86741984	0.17801507	-1.2000534	0.93954526	-0.13851873	-1.2020198	0.94853663	0.102505	-1.3605175	1.0096164	-0.016597776	-1.1458849	1.3894526	-0.17083587	-1.1992329	1.4067299	0.15363369	-1.2320634	1.4548234	-0.012215942	-1.2752998	1.0379856	-0.25863771	-1.3799391	1.0898485	0.22423954	-1.0558594	0.88163366	-0.21408786	-1.2762761	0.84003576	0.26111522
8	0.028	-1.4386011	0.035646796	-0.078978711	-0.78366578	0.127407	0.075137812	-1.5858782	0.079151364	-0.10482884	-0.92193318	0.082404752	0.10612427	-1.5617504	0.092846899	-0.0099275167	-0.92804389	0.11870294	0.013115693	NaN	NaN	NaN	-0.97048612	0.0294078	0.051969168	-1.4345146	0.47014516	-0.1583298	-1.0715306	0.51629898	0.14269976	-1.4364919	0.47002296	-0.033387207	-1.0701587	0.49595359	0.014934642	-1.3016085	0.86880367	-0.19253194	-1.2780483	0.86549972	0.17802135	-1.1939818	0.93809904	-0.13874939	-1.1957244	0.94695866	0.10242637	-1.3552885	1.007785	-0.015381842	-1.139919	1.3879409	-0.17049759	-1.1935931	1.4048842	0.15399631	-1.2262789	1.4532418	-0.011879528	-1.2684313	1.0361038	-0.25861263	-1.3741765	1.0877893	0.22423006	-1.0484598	0.88067439	-0.21352018	-1.2703518	0.8381779	0.26165047
9	0.032	-1.4385174	0.035596266	-0.0789916	-0.77059588	0.13055426	0.075974093	-1.5854837	0.079948875	-0.10465347	-0.90824708	0.083518391	0.10661111	-1.5603148	0.093630603	-0.010182101	-0.91445363	0.11985891	0.013822005	NaN	NaN	NaN	-0.95604527	0.029780848	0.052485631	-1.4308293	0.46959808	-0.15819196	-1.0645884	0.51499854	0.14313824	-1.4324765	0.46962448	-0.033241472	-1.0635395	0.49437506	0.015163808	-1.2956278	0.86728792	-0.19228867	-1.2713126	0.86357926	0.17804165	-1.1878831	0.93667074	-0.13898458	-1.1894004	0.94539587	0.10236358	-1.3502862	1.0059258	-0.013727619	-1.1339241	1.3864418	-0.17014285	-1.1878877	1.4030568	0.1543657	-1.2204953	1.4516256	-0.011576072	-1.2615567	1.0342442	-0.25853326	-1.3683704	1.0857472	0.22424147	-1.0410999	0.87967068	-0.21296644	-1.264395	0.83631743	0.26217071
10	0.036	-1.4384321	0.035547749	-0.079013812	-0.75812437	0.13343849	0.076780045	-1.585072	0.080823445	-0.1045557	-0.89583297	0.084216864	0.10674134	-1.5589923	0.094430302	-0.010399963	-0.90155192	0.12094942	0.01438718	NaN	NaN	NaN	-0.94222673	0.030174319	0.052779753	-1.4270823	0.46904274	-0.15807964	-1.0573764	0.51379239	0.14364567	-1.428388	0.46917862	-0.033083913	-1.0567632	0.49287732	0.015451494	-1.2895704	0.86576459	-0.19200625	-1.2644087	0.8616646	0.1780696	-1.1817724	0.93525252	-0.13921722	-1.1830647	0.94384975	0.10231924	-1.3450935	1.0039947	-0.012141738	-1.1279015	1.3849698	-0.16977227	-1.1821095	1.4012569	0.15474609	-1.2147703	1.4499261	-0.011407269	-1.2546738	1.0324134	-0.2583777	-1.3625172	1.0837264	0.22427861	-1.0337901	0.87861908	-0.21243285	-1.2583782	0.83446702	0.26267975
11	0.04	-1.438346	0.035489339	-0.079033674	-0.74623665	0.13602269	0.077551535	-1.5846263	0.081772991	-0.10454551	-0.8841916	0.084688964	0.10669988	-1.557802	0.095231276	-0.010594525	-0.88941105	0.12191013	0.014796793	NaN	NaN	NaN	-0.92895011	0.030595371	0.052859713	-1.4232317	0.46847446	-0.157992	-1.0498885	0.51270755	0.14419417	-1.4241955	0.46869915	-0.032934541	-1.0497707	0.49150221	0.015775454	-1.2834784	0.86424793	-0.19176381	-1.2573636	0.85976237	0.17809374	-1.1756392	0.93383987	-0.13944523	-1.1767051	0.94232879	0.10230565	-1.3394287	1.0020319	-0.01108571	-1.1218559	1.3835359	-0.16938463	-1.1762504	1.3994878	0.15514005	-1.2090996	1.4481566	-0.011352284	-1.2477854	1.0306295	-0.25815	-1.3566025	1.0817286	0.22434676	-1.0265437	0.87751849	-0.21192394	-1.2522881	0.83263077	0.2631776
12	0.044	-1.4382591	0.035419166	-0.079047714	-0.73494277	0.13827103	0.078278585	-1.5841328	0.082789063	-0.10462564	-0.8729468	0.085062915	0.10662946	-1.5567082	0.096050449	-0.010800085	-0.8779302	0.12272688	0.015075128	NaN	NaN	NaN	-0.91617971	0.031071637	0.052643565	-1.4191908	0.46790799	-0.15793995	-1.0421775	0.51175513	0.14475817	-1.4198208	0.46819871	-0.032825263	-1.0425181	0.49029409	0.016113082	-1.2773634	0.86275688	-0.19158585	-1.2502071	0.85787893	0.17812217	-1.1694447	0.93243282	-0.13966145	-1.1702609	0.94084389	0.10233135	-1.3333439	1.0001179	-0.010596332	-1.1157907	1.3821424	-0.16897734	-1.1703157	1.3977555	0.15554247	-1.2034158	1.4464173	-0.011260332	-1.2409061	1.0289228	-0.25789574	-1.3506174	1.0797593	0.22444625	-1.019362	0.87637765	-0.21143724	-1.2461388	0.83080866	0.2636568
13	0.048	-1.4381699	0.035351937	-0.079068188	-0.72430301	0.14013393	0.078965153	-1.583586	0.083872813	-0.10479533	-0.86201963	0.085344847	0.10656727	-1.5556571	0.096917409	-0.011047658	-0.86700481	0.12340003	0.015254045	NaN	NaN	NaN	-0.90401912	0.031556051	0.052093939	-1.4147815	0.46737857	-0.1579478	-1.0343206	0.51092349	0.14532322	-1.4152151	0.46767111	-0.032779194	-1.0349961	0.48928156	0.016445652	-1.2712008	0.86130716	-0.19142648	-1.2429691	0.85601148	0.17817867	-1.1631464	0.93103258	-0.13985094	-1.1636116	0.93940436	0.1023972	-1.3270344	0.99828537	-0.010423876	-1.1097081	1.3807857	-0.16855416	-1.1643299	1.3960684	0.15594778	-1.1976573	1.4448014	-0.011001907	-1.2340531	1.0273127	-0.25766355	-1.3445686	1.0778305	0.22456833	-1.0122314	0.87521285	-0.21096667	-1.2399549	0.82900516	0.26411089
